<?xml version="1.0" encoding="UTF-8"?>
<svg width="114px" height="94px" viewBox="0 0 114 94" version="1.1" xmlns="http://www.w3.org/2000/svg" xmlns:xlink="http://www.w3.org/1999/xlink">
    <!-- Generator: Sketch 41.2 (35397) - http://www.bohemiancoding.com/sketch -->
    <title>symbol_integrate</title>
    <desc>Created with Sketch.</desc>
    <defs></defs>
    <g id="landingpage" stroke="none" stroke-width="1" fill="none" fill-rule="evenodd" stroke-linecap="round">
        <g id="Desktop" transform="translate(-133.000000, -999.000000)" stroke="#0E5177" stroke-width="2">
            <g id="symbol_integrate" transform="translate(134.000000, 1000.000000)">
                <rect id="Rectangle-435" x="0" y="16" width="112" height="76"></rect>
                <rect id="Rectangle-436" fill="#BDD8E7" x="0" y="0" width="112" height="16"></rect>
                <ellipse id="Oval-475" cx="8" cy="8" rx="2" ry="2"></ellipse>
                <circle id="Oval-476" cx="18" cy="8" r="2"></circle>
                <ellipse id="Oval-477" cx="28" cy="8" rx="2" ry="2"></ellipse>
                <path d="M36.1719061,74.5393792 L35.3333834,75.3779018 C34.5618904,76.1493949 33.3143071,76.152649 32.5347733,75.3731152 C31.7606367,74.5989785 31.7591157,73.3453759 32.5299866,72.5745051 L33.363134,71.7413577 C32.6726297,70.7025301 32.173475,69.5260048 31.9158551,68.2618708 L30.743635,68.2618708 C29.6525791,68.2618708 28.7681035,67.3819971 28.7681035,66.2795699 C28.7681035,65.1847753 29.653459,64.297269 30.743635,64.297269 L31.9158551,64.297269 C32.173475,63.0331349 32.6726297,61.8566097 33.363134,60.8177821 L32.5299866,59.9846347 C31.7584936,59.2131417 31.7552395,57.9655584 32.5347733,57.1860246 C33.30891,56.411888 34.5625125,56.410367 35.3333834,57.1812379 L36.1719061,58.0197606 C37.2098816,57.3353287 38.3844433,56.8405764 39.6460177,56.5849821 L39.6460177,55.3948863 C39.6460177,54.3038304 40.5258913,53.4193548 41.6283186,53.4193548 C42.7231131,53.4193548 43.6106195,54.3047103 43.6106195,55.3948863 L43.6106195,56.5849821 C44.8721938,56.8405764 46.0467556,57.3353287 47.0847311,58.0197606 L47.9232537,57.1812379 C48.6947468,56.4097449 49.9423301,56.4064908 50.7218639,57.1860246 C51.4960005,57.9601613 51.4975214,59.2137638 50.7266505,59.9846347 L49.8935032,60.8177821 C50.5840075,61.8566097 51.0831622,63.0331349 51.3407821,64.297269 L52.5130021,64.297269 C53.6040581,64.297269 54.4885336,65.1771426 54.4885336,66.2795699 C54.4885336,67.3743644 53.6031782,68.2618708 52.5130021,68.2618708 L51.3407821,68.2618708 C51.0831622,69.5260048 50.5840075,70.7025301 49.8935032,71.7413577 L50.7266505,72.5745051 C51.4981436,73.3459981 51.5013976,74.5935814 50.7218639,75.3731152 C49.9477272,76.1472518 48.6941246,76.1487727 47.9232537,75.3779018 L47.0847311,74.5393792 C46.0467556,75.2238111 44.8721938,75.7185633 43.6106195,75.9741577 L43.6106195,77.1642535 C43.6106195,78.2553094 42.7307458,79.1397849 41.6283186,79.1397849 C40.533524,79.1397849 39.6460177,78.2544295 39.6460177,77.1642535 L39.6460177,75.9741577 C38.3844433,75.7185633 37.2098816,75.2238111 36.1719061,74.5393792 Z M41.6283186,69.2473118 C43.2705104,69.2473118 44.6017699,67.9186085 44.6017699,66.2795699 C44.6017699,64.6405313 43.2705104,63.311828 41.6283186,63.311828 C39.9861268,63.311828 38.6548673,64.6405313 38.6548673,66.2795699 C38.6548673,67.9186085 39.9861268,69.2473118 41.6283186,69.2473118 Z" id="Rectangle-354" stroke-linejoin="round" fill="#BDD8E7"></path>
                <path d="M64.2061354,63.9444316 L63.3240083,64.8265587 C62.5123964,65.6381706 61.1999369,65.6415939 60.3798661,64.8215231 C59.5654731,64.0071301 59.5638731,62.6883383 60.3748305,61.8773809 L61.2513028,61.0009086 C60.5248912,59.9080604 59.9997797,58.6703539 59.7287631,57.3404829 L58.4955858,57.3404829 C57.3477933,57.3404829 56.4173236,56.4148545 56.4173236,55.2550993 C56.4173236,54.1033738 57.3487189,53.1697157 58.4955858,53.1697157 L59.7287631,53.1697157 C59.9997797,51.8398447 60.5248912,50.6021383 61.2513028,49.50929 L60.3748305,48.6328177 C59.5632186,47.8212059 59.5597953,46.5087463 60.3798661,45.6886755 C61.1942591,44.8742826 62.5130509,44.8726826 63.3240083,45.6836399 L64.2061354,46.5657671 C65.2980873,45.8457437 66.5337281,45.3252635 67.8609063,45.0563779 L67.8609063,43.8043953 C67.8609063,42.6566028 68.7865347,41.7261331 69.9462899,41.7261331 C71.0980154,41.7261331 72.0316735,42.6575284 72.0316735,43.8043953 L72.0316735,45.0563779 C73.3588517,45.3252635 74.5944924,45.8457437 75.6864443,46.5657671 L76.5685715,45.6836399 C77.3801833,44.8720281 78.6926429,44.8686048 79.5127136,45.6886755 C80.3271066,46.5030685 80.3287066,47.8218604 79.5177492,48.6328177 L78.641277,49.50929 C79.3676885,50.6021383 79.8928,51.8398447 80.1638166,53.1697157 L81.3969939,53.1697157 C82.5447864,53.1697157 83.4752561,54.0953441 83.4752561,55.2550993 C83.4752561,56.4068249 82.5438608,57.3404829 81.3969939,57.3404829 L80.1638166,57.3404829 C79.8928,58.6703539 79.3676885,59.9080604 78.641277,61.0009086 L79.5177492,61.8773809 C80.3293611,62.6889928 80.3327844,64.0014523 79.5127136,64.8215231 C78.6983207,65.6359161 77.3795288,65.6375161 76.5685715,64.8265587 L75.6864443,63.9444316 C74.5944924,64.6644549 73.3588517,65.1849351 72.0316735,65.4538208 L72.0316735,66.7058034 C72.0316735,67.8535959 71.1060451,68.7840656 69.9462899,68.7840656 C68.7945643,68.7840656 67.8609063,67.8526703 67.8609063,66.7058034 L67.8609063,65.4538208 C66.5337281,65.1849351 65.2980873,64.6644549 64.2061354,63.9444316 Z M69.9462899,58.3771685 C71.6738782,58.3771685 73.0743653,56.9793705 73.0743653,55.2550993 C73.0743653,53.5308282 71.6738782,52.1330302 69.9462899,52.1330302 C68.2187015,52.1330302 66.8182144,53.5308282 66.8182144,55.2550993 C66.8182144,56.9793705 68.2187015,58.3771685 69.9462899,58.3771685 Z" id="Rectangle-354" stroke-linejoin="round" fill="#BDD8E7" transform="translate(69.946290, 55.255099) rotate(-14.000000) translate(-69.946290, -55.255099) "></path>
                <path d="M41.4944298,46.0414835 L40.7849106,46.7510027 C40.1321088,47.4038045 39.0764614,47.4065579 38.4168559,46.7469524 C37.7618172,46.0919137 37.7605303,45.0311731 38.4128057,44.3788977 L39.1177765,43.6739269 C38.5335036,42.7949189 38.111142,41.7993976 37.8931559,40.7297456 L36.9012774,40.7297456 C35.9780762,40.7297456 35.2296738,39.9852372 35.2296738,39.0524141 C35.2296738,38.1260495 35.9788207,37.3750826 36.9012774,37.3750826 L37.8931559,37.3750826 C38.111142,36.3054307 38.5335036,35.3099093 39.1177765,34.4309013 L38.4128057,33.7259305 C37.7600039,33.0731287 37.7572504,32.0174813 38.4168559,31.3578758 C39.0718946,30.7028371 40.1326353,30.7015502 40.7849106,31.3538256 L41.4944298,32.0633447 C42.3727168,31.4842101 43.3665767,31.0655735 44.4340627,30.8493014 L44.4340627,29.8422973 C44.4340627,28.9190961 45.1785712,28.1706937 46.1113942,28.1706937 C47.0377588,28.1706937 47.7887257,28.9198406 47.7887257,29.8422973 L47.7887257,30.8493014 C48.8562118,31.0655735 49.8500717,31.4842101 50.7283587,32.0633447 L51.4378778,31.3538256 C52.0906796,30.7010238 53.146327,30.6982703 53.8059325,31.3578758 C54.4609712,32.0129145 54.4622582,33.0736552 53.8099828,33.7259305 L53.105012,34.4309013 C53.6892848,35.3099093 54.1116465,36.3054307 54.3296326,37.3750826 L55.3215111,37.3750826 C56.2447123,37.3750826 56.9931147,38.1195911 56.9931147,39.0524141 C56.9931147,39.9787787 56.2439678,40.7297456 55.3215111,40.7297456 L54.3296326,40.7297456 C54.1116465,41.7993976 53.6892848,42.7949189 53.105012,43.6739269 L53.8099828,44.3788977 C54.4627846,45.0316995 54.4655381,46.0873469 53.8059325,46.7469524 C53.1508938,47.4019911 52.0901532,47.4032781 51.4378778,46.7510027 L50.7283587,46.0414835 C49.8500717,46.6206182 48.8562118,47.0392547 47.7887257,47.2555269 L47.7887257,48.262531 C47.7887257,49.1857322 47.0442173,49.9341346 46.1113942,49.9341346 C45.1850296,49.9341346 44.4340627,49.1849877 44.4340627,48.262531 L44.4340627,47.2555269 C43.3665767,47.0392547 42.3727168,46.6206182 41.4944298,46.0414835 Z M46.1113942,41.5635804 C47.5009412,41.5635804 48.6273915,40.439293 48.6273915,39.0524141 C48.6273915,37.6655353 47.5009412,36.5412479 46.1113942,36.5412479 C44.7218473,36.5412479 43.595397,37.6655353 43.595397,39.0524141 C43.595397,40.439293 44.7218473,41.5635804 46.1113942,41.5635804 Z" id="Rectangle-354" stroke-linejoin="round" fill="#BDD8E7" transform="translate(46.111394, 39.052414) rotate(-54.000000) translate(-46.111394, -39.052414) "></path>
            </g>
        </g>
    </g>
</svg>