<?xml version="1.0" encoding="UTF-8"?>
<svg width="98px" height="97px" viewBox="0 0 98 97" version="1.1" xmlns="http://www.w3.org/2000/svg" xmlns:xlink="http://www.w3.org/1999/xlink">
    <!-- Generator: Sketch 41.2 (35397) - http://www.bohemiancoding.com/sketch -->
    <title>symbol_car</title>
    <desc>Created with Sketch.</desc>
    <defs></defs>
    <g id="landingpage" stroke="none" stroke-width="1" fill="none" fill-rule="evenodd">
        <g id="Desktop" transform="translate(-463.000000, -573.000000)">
            <g id="symbol_car" transform="translate(463.000000, 571.000000)">
                <circle id="Oval" fill-opacity="0.3" fill="#247DB0" cx="22.5" cy="62.5" r="7.5"></circle>
                <circle id="Oval-Copy" fill-opacity="0.3" fill="#247DB0" cx="78.5" cy="62.5" r="7.5"></circle>
                <g id="car_crashed" fill="#0E5177">
                    <path d="M98,62.597497 C98,61.688186 97.2682667,60.9501945 96.3666667,60.9501945 L88.053,60.9501945 C87.2706333,56.2833864 83.2461,52.7136817 78.4,52.7136817 C73.5539,52.7136817 69.5293667,56.2833864 68.747,60.9501945 L32.5196667,60.9501945 C31.7373,56.2833864 27.7127667,52.7136817 22.8666667,52.7136817 C18.0205667,52.7136817 13.9960333,56.2833864 13.2136667,60.9501945 L1.63333333,60.9501945 C0.731733333,60.9501945 0,61.688186 0,62.597497 C0,63.5068081 0.731733333,64.2447996 1.63333333,64.2447996 L4.9,64.2447996 L4.9,75.7759175 C4.9,80.0869083 8.94576667,84.0124302 13.3900667,84.0124302 L18.2214667,84.0124302 L26.3571,98.0227385 C26.7621667,98.7195474 27.6066,99.0193565 28.3546667,98.727784 L37.4425333,95.19432 L45.0555,98.689896 L45.0783667,98.6948379 L45.3805333,98.7673192 L45.7072,98.8332113 L45.7333333,98.8381532 L46.0126333,98.7821449 L46.3180667,98.7294313 L55.6999333,95.1053656 L64.7306333,98.7211947 C64.9266333,98.8019126 65.1308,98.8381532 65.3317,98.8381532 C65.9099,98.8381532 66.4652333,98.5284603 66.7608667,97.9914397 L74.4604,84.0124302 L88.2,84.0124302 C92.0693667,84.0124302 98,80.3224725 98,75.7759175 L98,64.2447996 C98,63.9384013 97.8938333,63.6665964 97.7501,63.4211483 C97.8938333,63.1757002 98,62.9038953 98,62.597497 L98,62.597497 Z M78.4,56.0082868 C82.0031333,56.0082868 84.9333333,58.9635476 84.9333333,62.597497 C84.9333333,66.2314465 82.0031333,69.1867073 78.4,69.1867073 C74.7968667,69.1867073 71.8666667,66.2314465 71.8666667,62.597497 C71.8666667,58.9635476 74.7968667,56.0082868 78.4,56.0082868 L78.4,56.0082868 Z M22.8666667,56.0082868 C26.4698,56.0082868 29.4,58.9635476 29.4,62.597497 C29.4,66.2314465 26.4698,69.1867073 22.8666667,69.1867073 C19.2635333,69.1867073 16.3333333,66.2314465 16.3333333,62.597497 C16.3333333,58.9635476 19.2635333,56.0082868 22.8666667,56.0082868 L22.8666667,56.0082868 Z M36.9084333,91.8717107 L28.4755333,95.1498428 L22.0075333,84.0124302 L44.1,84.0124302 L44.1,94.6309425 L38.1726333,91.9095987 C37.7724667,91.7283954 37.3200333,91.715217 36.9084333,91.8717107 L36.9084333,91.8717107 Z M64.6016,95.1267806 L56.3124333,91.8058186 C55.9302333,91.6542668 55.5072,91.6509722 55.125,91.7992294 L47.3666667,94.7956728 L47.3666667,84.0124302 L70.7233333,84.0124302 L64.6016,95.1267806 L64.6016,95.1267806 Z M94.7333333,75.7759175 C94.7333333,78.0195435 90.7202333,80.7178251 88.2,80.7178251 L19.6,80.7178251 L19.4252333,80.7540658 L19.1573667,80.7178251 L13.3900667,80.7178251 C10.8028667,80.7178251 8.16666667,78.2238091 8.16666667,75.7759175 L8.16666667,64.2447996 L13.2136667,64.2447996 C13.9960333,68.9116077 18.0205667,72.4813124 22.8666667,72.4813124 C27.7127667,72.4813124 31.7373,68.9116077 32.5196667,64.2447996 L68.747,64.2447996 C69.5293667,68.9116077 73.5539,72.4813124 78.4,72.4813124 C83.2461,72.4813124 87.2706333,68.9116077 88.053,64.2447996 L94.7333333,64.2447996 L94.7333333,75.7759175 L94.7333333,75.7759175 Z" id="Fill-175"></path>
                    <path d="M66.3590667,49.5360351 C65.5228,49.8753794 65.1144667,50.8324622 65.4493,51.6791757 C65.7057333,52.3216237 66.3182333,52.7136817 66.9666667,52.7136817 C67.1692,52.7136817 67.3733667,52.6757938 67.5742667,52.5967232 C70.7413,51.3184165 72.5314333,48.2264296 72.6131,43.8923765 C72.7405,37.0379506 68.6555333,28.4225583 64.3631333,26.4985089 C63.7653333,26.2299986 63.0581,26.3502516 62.5811667,26.8049072 C62.1009667,27.2595627 61.9392667,27.9613135 62.1695667,28.5823466 C64.3990667,34.5752333 63.3194333,38.7050208 61.0997333,39.6868131 C59.2981667,40.4857549 57.0980667,39.049307 55.6280667,36.1171085 C55.3291667,35.520785 54.6970667,35.1649676 54.0421,35.2176813 C53.3822333,35.2720423 52.8187333,35.7201086 52.6162,36.3559674 C50.5794333,42.7376175 50.568,46.74221 56.0119,52.2310221 C56.6505333,52.8751174 57.6828,52.8751174 58.3214333,52.2310221 C58.9600667,51.5869268 58.9600667,50.5458316 58.3214333,49.9017363 C54.9976,46.5494756 54.1874667,44.2317209 54.8391667,40.7130826 C57.281,43.2944057 60.1997667,43.6848164 62.4129333,42.7030241 C65.023,41.548265 66.934,38.4595727 66.6547,33.7252252 C68.2145333,36.6244777 69.4085,40.4874022 69.3448,43.8281317 C69.2892667,46.8394008 68.2847667,48.7601556 66.3590667,49.5360351" id="Fill-177"></path>
                </g>
                <path d="M55.805785,29.9607587 C55.805785,29.9607587 59.4624375,22.5995088 58.1188147,15.5874539 C56.775192,8.57539907 50.15472,-0.0900192903 52.5986962,2.45391748 C54.6214501,4.55940369 66.1788924,8.91592276 70.724998,15.5874539 C75.2711036,22.2589851 76.2504877,33.677134 76.2504877,33.677134 L81.9527385,22.852721 C81.9527385,22.852721 89.8374831,24.1062634 87.4025433,38.6210704 C84.9676036,53.1358773 83.2872283,47.583584 83.2872283,47.583584 L48.9951159,53.0773844 C48.9951159,53.0773844 37.1705348,48.9952788 39.2439644,41.3120366 C41.5182342,32.8845666 42.9492819,24.2780619 45.6220085,21.0655796 C50.7314338,14.9243084 55.805785,29.9607587 55.805785,29.9607587 Z" id="Rectangle-4" fill-opacity="0.3" fill="#247DB0"></path>
            </g>
        </g>
    </g>
</svg>