<?xml version="1.0" encoding="UTF-8"?>
<svg width="105px" height="95px" viewBox="0 0 105 95" version="1.1" xmlns="http://www.w3.org/2000/svg" xmlns:xlink="http://www.w3.org/1999/xlink">
    <!-- Generator: Sketch 41.2 (35397) - http://www.bohemiancoding.com/sketch -->
    <title>symbol_grow</title>
    <desc>Created with Sketch.</desc>
    <defs></defs>
    <g id="landingpage" stroke="none" stroke-width="1" fill="none" fill-rule="evenodd">
        <g id="Desktop" transform="translate(-804.000000, -554.000000)">
            <g id="symbol_grow" transform="translate(805.000000, 544.000000)">
                <path d="M6.91519094,77.9853775 C9.02573272,80.252105 30.6636311,95.1319929 31.3035342,96.4089999 C31.9434372,97.6860069 37.4118897,106.730619 43.5678465,102.926944 C49.7238034,99.1232681 45.9589502,81.186303 44.763399,79.5858406 C43.5678477,77.9853782 27.6296748,63.6851033 27.6296748,63.6851033 C27.6296748,63.6851033 24.2199497,63.0116892 22.8773748,64.671039 C21.5348,66.3303888 22.4662194,68.7847128 22.4662194,68.7847128 L30.1172495,77.5138613 L15.347248,70.7527987 L6.58407599,48.3972108 C6.58407599,48.3972108 5.04055793,46.4253393 2.07526771,47.4112751 C-0.890022499,48.3972108 0.25160789,52.173126 0.25160789,52.173126 C0.25160789,52.173126 4.80464915,75.71865 6.91519094,77.9853775 Z" id="Path-2186" stroke="#0E5177" stroke-width="2" stroke-linecap="round" stroke-linejoin="round" fill-opacity="0.3" fill="#247DB0"></path>
                <path d="M62.1783488,77.9853775 C64.2888906,80.252105 85.926789,95.1319929 86.566692,96.4089999 C87.2065951,97.6860069 92.6750476,106.730619 98.8310044,102.926944 C104.986961,99.1232681 101.222108,81.186303 100.026557,79.5858406 C98.8310056,77.9853782 82.8928327,63.6851033 82.8928327,63.6851033 C82.8928327,63.6851033 79.4831075,63.0116892 78.1405327,64.671039 C76.7979579,66.3303888 77.7293773,68.7847128 77.7293773,68.7847128 L85.3804074,77.5138613 L70.6104059,70.7527987 L61.8472339,48.3972108 C61.8472339,48.3972108 60.3037158,46.4253393 57.3384256,47.4112751 C54.3731354,48.3972108 55.5147658,52.173126 55.5147658,52.173126 C55.5147658,52.173126 60.067807,75.71865 62.1783488,77.9853775 Z" id="Path-2187" stroke="#0E5177" stroke-width="2" stroke-linecap="round" stroke-linejoin="round" fill-opacity="0.3" fill="#247DB0" transform="translate(78.780803, 75.494724) scale(-1, 1) translate(-78.780803, -75.494724) "></path>
                <path d="M70.7696056,61.6854919 C81.4721803,56.8325982 88.9150547,46.0672175 88.9150547,33.5661212 C88.9150547,21.0650249 81.4721803,10.2996443 70.7696056,5.44675058 C60.0670309,10.2996443 52.6241565,21.0650249 52.6241565,33.5661212 C52.6241565,46.0672175 60.0670309,56.8325982 70.7696056,61.6854919 L70.7696056,61.6854919 Z" id="Oval-929" fill-opacity="0.3" fill="#247DB0" transform="translate(70.769606, 33.566121) rotate(46.000000) translate(-70.769606, -33.566121) "></path>
                <path d="M28.7683006,39.0246387 C34.739312,36.3171889 38.8917229,30.3111378 38.8917229,23.3367237 C38.8917229,16.3623095 34.739312,10.3562584 28.7683006,7.64880859 C22.7972892,10.3562584 18.6448783,16.3623095 18.6448783,23.3367237 C18.6448783,30.3111378 22.7972892,36.3171889 28.7683006,39.0246387 L28.7683006,39.0246387 Z" id="Oval-929" fill-opacity="0.3" fill="#247DB0" transform="translate(28.768301, 23.336724) rotate(-34.000000) translate(-28.768301, -23.336724) "></path>
                <path d="M44.5251128,63.0216419 C44.5251128,63.0216419 54.2964251,42.7187453 68.3692663,33.4367708" id="Path-2189" stroke="#0E5177" stroke-width="2" stroke-linecap="round" stroke-linejoin="round"></path>
                <path d="M40.2764062,45.862948 C40.2764062,45.862948 37.841176,32.7312601 31.8185009,25.8107187" id="Path-2191" stroke="#0E5177" stroke-width="2" stroke-linecap="round" stroke-linejoin="round"></path>
            </g>
        </g>
    </g>
</svg>